<svg xmlns="http://www.w3.org/2000/svg" width="960" height="540" viewBox="0 0 960 540">
<rect x="0.0" y="0.0" width="960.0" height="540.0" fill="#ffffff" stroke="none" stroke-width="1.0" />
<text x="480.0" y="36.0" font-size="22" text-anchor="middle" font-family="Helvetica, Arial, sans-serif" font-weight="bold" fill="#111827">Figure 2. Final Fine-Tune Return by Backup Horizon</text>
<text x="480.0" y="58.0" font-size="13" text-anchor="middle" font-family="Helvetica, Arial, sans-serif" font-weight="normal" fill="#111827">Secondary robustness observation under the fixed severe shift</text>
<line x1="90.0" y1="460.0" x2="920.0" y2="460.0" stroke="#e5e7eb" stroke-width="1.0" />
<text x="80.0" y="465.0" font-size="12" text-anchor="end" font-family="Helvetica, Arial, sans-serif" font-weight="normal" fill="#111827">0.00</text>
<line x1="90.0" y1="382.0" x2="920.0" y2="382.0" stroke="#e5e7eb" stroke-width="1.0" />
<text x="80.0" y="387.0" font-size="12" text-anchor="end" font-family="Helvetica, Arial, sans-serif" font-weight="normal" fill="#111827">0.34</text>
<line x1="90.0" y1="304.0" x2="920.0" y2="304.0" stroke="#e5e7eb" stroke-width="1.0" />
<text x="80.0" y="309.0" font-size="12" text-anchor="end" font-family="Helvetica, Arial, sans-serif" font-weight="normal" fill="#111827">0.67</text>
<line x1="90.0" y1="226.0" x2="920.0" y2="226.0" stroke="#e5e7eb" stroke-width="1.0" />
<text x="80.0" y="231.0" font-size="12" text-anchor="end" font-family="Helvetica, Arial, sans-serif" font-weight="normal" fill="#111827">1.01</text>
<line x1="90.0" y1="148.0" x2="920.0" y2="148.0" stroke="#e5e7eb" stroke-width="1.0" />
<text x="80.0" y="153.0" font-size="12" text-anchor="end" font-family="Helvetica, Arial, sans-serif" font-weight="normal" fill="#111827">1.34</text>
<line x1="90.0" y1="70.0" x2="920.0" y2="70.0" stroke="#e5e7eb" stroke-width="1.0" />
<text x="80.0" y="75.0" font-size="12" text-anchor="end" font-family="Helvetica, Arial, sans-serif" font-weight="normal" fill="#111827">1.68</text>
<line x1="90.0" y1="70.0" x2="90.0" y2="460.0" stroke="#111827" stroke-width="1.5" />
<line x1="90.0" y1="460.0" x2="920.0" y2="460.0" stroke="#111827" stroke-width="1.5" />
<text x="26.0" y="265.0" font-size="14" text-anchor="start" font-family="Helvetica, Arial, sans-serif" font-weight="normal" fill="#111827">Final return</text>
<text x="228.3" y="488.0" font-size="14" text-anchor="middle" font-family="Helvetica, Arial, sans-serif" font-weight="bold" fill="#111827">n = 1</text>
<circle cx="208.3" cy="458.2" r="6.0" fill="#0f766e" stroke="#ffffff" stroke-width="1.5" />
<circle cx="214.0" cy="423.1" r="6.0" fill="#0f766e" stroke="#ffffff" stroke-width="1.5" />
<circle cx="219.8" cy="409.8" r="6.0" fill="#0f766e" stroke="#ffffff" stroke-width="1.5" />
<circle cx="225.5" cy="120.9" r="6.0" fill="#0f766e" stroke="#ffffff" stroke-width="1.5" />
<circle cx="231.2" cy="432.5" r="6.0" fill="#0f766e" stroke="#ffffff" stroke-width="1.5" />
<circle cx="236.9" cy="340.5" r="6.0" fill="#0f766e" stroke="#ffffff" stroke-width="1.5" />
<circle cx="242.6" cy="282.3" r="6.0" fill="#0f766e" stroke="#ffffff" stroke-width="1.5" />
<circle cx="248.3" cy="225.8" r="6.0" fill="#0f766e" stroke="#ffffff" stroke-width="1.5" />
<line x1="198.3" y1="336.6" x2="258.3" y2="336.6" stroke="#111827" stroke-width="3.0" />
<text x="228.3" y="326.6" font-size="12" text-anchor="middle" font-family="Helvetica, Arial, sans-serif" font-weight="normal" fill="#111827">0.531</text>
<text x="505.0" y="488.0" font-size="14" text-anchor="middle" font-family="Helvetica, Arial, sans-serif" font-weight="bold" fill="#111827">n = 3</text>
<circle cx="485.0" cy="456.4" r="6.0" fill="#b45309" stroke="#ffffff" stroke-width="1.5" />
<circle cx="498.3" cy="457.5" r="6.0" fill="#b45309" stroke="#ffffff" stroke-width="1.5" />
<circle cx="511.7" cy="458.1" r="6.0" fill="#b45309" stroke="#ffffff" stroke-width="1.5" />
<circle cx="525.0" cy="458.7" r="6.0" fill="#b45309" stroke="#ffffff" stroke-width="1.5" />
<line x1="475.0" y1="457.7" x2="535.0" y2="457.7" stroke="#111827" stroke-width="3.0" />
<text x="505.0" y="447.7" font-size="12" text-anchor="middle" font-family="Helvetica, Arial, sans-serif" font-weight="normal" fill="#111827">0.010</text>
<text x="781.7" y="488.0" font-size="14" text-anchor="middle" font-family="Helvetica, Arial, sans-serif" font-weight="bold" fill="#111827">n = 10</text>
<circle cx="761.7" cy="456.1" r="6.0" fill="#7c3aed" stroke="#ffffff" stroke-width="1.5" />
<circle cx="775.0" cy="453.7" r="6.0" fill="#7c3aed" stroke="#ffffff" stroke-width="1.5" />
<circle cx="788.3" cy="455.1" r="6.0" fill="#7c3aed" stroke="#ffffff" stroke-width="1.5" />
<circle cx="801.7" cy="453.8" r="6.0" fill="#7c3aed" stroke="#ffffff" stroke-width="1.5" />
<line x1="751.7" y1="454.7" x2="811.7" y2="454.7" stroke="#111827" stroke-width="3.0" />
<text x="781.7" y="444.7" font-size="12" text-anchor="middle" font-family="Helvetica, Arial, sans-serif" font-weight="normal" fill="#111827">0.023</text>
</svg>
